<svg id="Layer_1" data-name="Layer 1" xmlns="http://www.w3.org/2000/svg" viewBox="0 0 554.28 123.34"><defs><style>.cls-1{fill:#231f20;}</style></defs><title>dragon-logo</title><path class="cls-1" d="M84.31,40.52c2.77,7.19,2.3,14.65-.83,23.35,0,0,2-10-2.2-15.11,2.15,15-2.5,22-13.26,29.84,0,0,7-8.59,6.27-15.45,0,0-4.21,9.08-13.39,13.51-1.41,3.86-6.7,6.44-13,6.44a22.82,22.82,0,0,1-10-2.87c0.2,1.59,1.61,4.29,10.72,4.82,6.49,0,9.87-1.63,12.87-4l-0.27-1.75L67,76.07l-1.88,6.16L62.55,82c-4.14,3.25-7.38,6.13-15.46,6.13-11.62.07-18.29-5.41-18.29-9.88,0-1.27.12-3.19,1.46-4.26a20,20,0,0,1-8.79-10.81C20.71,70,27.74,78.6,27.74,78.6,17,70.78,12.33,63.72,14.48,48.76c-4.19,5.14-2.2,15.11-2.2,15.11-3.13-8.71-3.6-16.16-.83-23.35C9.64,41.93,9,45.16,9,45.12,9,28,23.61,13.62,37.79,9.17L39.38,13l4.46,4.19c-2.32-1-5-3.05-5.49-2.89-11.18,4-15.63,12.47-15.63,26.17s7.25,2.33,16.47,10l2.15-5.26-4.46.66,4.83-4.79-4.41,1,5.16-4.53L38.27,37l5.28-3.05-2.29-1.64,4.43-1.19a2.3,2.3,0,0,1,1.69-2.14,3.89,3.89,0,0,1,1.94.2l4.77-5.25s2.57-2,3.69-.29a7.41,7.41,0,0,1,.79,2.68,1.7,1.7,0,0,1,.52-0.41,10,10,0,0,0,3.59-3.53,7.08,7.08,0,0,1-.59,2.39c-0.72,1.22-1.84,1-3,2-0.7.59-.93,1.31-1.55,1.82a3.66,3.66,0,0,1,.8-1.95v0C57.56,25.46,57,26,57,26l-3.81,7.09,5.1-3.16a1.15,1.15,0,0,0-.23-1.18c-0.79-.85,2-0.19,2.75.66s0.63,4.46-.05,3.13-2.11.64-2.11,0.64l-2.49,2.4s-2.59,2.93-4.74,2.35l-1.19-1,1.25,1.68c-1.24,5-6.13,9.86,3.14,23.08a26.79,26.79,0,0,1-2.75-10.33c0.17-.1,3.06-1.91,3.22-2,11.84-6.58,18,5.55,18-8.82,0-13.7-4.44-22.14-15.63-26.17-0.45-.16-3.18,1.84-5.49,2.89L56.38,13,58,9.17C72.15,13.62,86.76,28,86.76,45.12,86.76,45.16,86.12,41.93,84.31,40.52ZM95.59,47.8A47.8,47.8,0,1,1,47.8,0,47.8,47.8,0,0,1,95.59,47.8ZM92,47.8A44.22,44.22,0,1,0,47.8,92,44.22,44.22,0,0,0,92,47.8Z"/><path class="cls-1" d="M109.7,6.5h32Q158,6.5,167,18.22q8,10.58,8,27.11a54.64,54.64,0,0,1-4.74,23.07Q162,86.62,141.62,86.62H109.7V6.5ZM139.6,77.34a28.77,28.77,0,0,0,8.85-1.14A19.55,19.55,0,0,0,158.58,68a34,34,0,0,0,4.53-12.43,48.42,48.42,0,0,0,.8-8.4q0-14.89-5.79-23.12t-18.64-8.24H120.67V77.34H139.6Z"/><path class="cls-1" d="M177.68,6.5H214.1q9,0,14.84,2.67Q240,14.29,240,28.09q0,7.2-3,11.78a21.49,21.49,0,0,1-8.32,7.36,16.42,16.42,0,0,1,7.06,5q2.37,3.11,2.64,10.09l0.38,10.74a32.85,32.85,0,0,0,.76,6.82q1,3.82,3.49,4.91v1.8H229.77a10,10,0,0,1-.87-2.67,51.07,51.07,0,0,1-.55-6.33l-0.66-13.36Q227.32,56.4,222,53.73q-3-1.47-9.49-1.47h-24V86.62H177.68V6.5ZM212.93,43.2q7.43,0,11.75-3.05t4.32-11q0-8.56-6-11.67a19.28,19.28,0,0,0-8.64-1.64H188.53V43.2h24.4Z"/><path class="cls-1" d="M270.18,6.49h13L314,86.61H301.42l-8.87-24H259.19l-9.22,24H238.16Zm19.1,47.29L276.19,18.38l-13.6,35.39h26.69Z"/><path class="cls-1" d="M362.2,8.79q11.77,6.27,14.41,22H365.86q-1.92-8.78-8-12.79t-15.22-4a23.64,23.64,0,0,0-18.35,8.34q-7.45,8.34-7.45,24.87,0,14.29,6.15,23.26t20,9q10.64,0,17.61-6.3t7.14-20.37H346.76v-9h31.16V86.62h-7l-2.62-10.31q-5.42,6.05-9.61,8.4-7,4-17.86,4a34.48,34.48,0,0,1-24.09-9.22q-11-11.56-11-31.74t10.75-32Q326.73,4.42,343,4.42,354.08,4.42,362.2,8.79Z"/><path class="cls-1" d="M450.19,17.95q8,10.64,8,27.22,0,17.94-9.11,29.83-10.69,14-30.49,14-18.49,0-29.07-12.22Q380,65,380,47q0-16.25,8.07-27.81Q398.48,4.31,418.77,4.31,440,4.31,450.19,17.95ZM440.62,69A43.84,43.84,0,0,0,447,45.36q0-14.14-7.39-22.76T419.43,14Q407,14,399.14,22.51T391.28,47.7q0,13.32,6.73,22.46t21.84,9.14Q434.21,79.31,440.62,69Z"/><path class="cls-1" d="M532.38,86.61H517.82L472.3,21.88V86.61H460.5V6.49h13.89l46.19,64.66V6.49h11.8V86.61Z"/><path d="M552.47,76.8a6.08,6.08,0,0,1,1.82,4.35,5.91,5.91,0,0,1-1.82,4.31,6.16,6.16,0,0,1-4.36,1.83,6,6,0,0,1-4.34-1.83A6,6,0,0,1,542,81.16a6.16,6.16,0,0,1,1.83-4.4,6,6,0,0,1,4.3-1.78A6.1,6.1,0,0,1,552.47,76.8Zm-0.48.53a5.38,5.38,0,0,0-3.87-1.61,5.19,5.19,0,0,0-3.78,1.56,5.34,5.34,0,0,0,0,7.67,5.31,5.31,0,0,0,3.77,1.61A5.54,5.54,0,0,0,552,85a5.14,5.14,0,0,0,1.58-3.75A5.39,5.39,0,0,0,552,77.33Zm-0.78,2.13a1.83,1.83,0,0,1-1.65,1.87l1.57,3.22h-1.3l-1.49-3.05h-1.49v3.05h-1.17v-7h2.59C550.24,77.52,551.2,78.14,551.2,79.47Zm-4.36-1.17v2.44h1.22c1.33,0,1.92-.29,1.92-1.19s-0.63-1.25-1.92-1.25h-1.22Z"/><path class="cls-1" d="M116.77,104.82h2.67l7.07,18.09h-2.67l-2-5.44h-7.66l-2,5.44H109.7ZM115,115.44h6.13l-3-8.43H118Z"/><path class="cls-1" d="M171.91,104.82h2.41v16.06h9.58v2h-12V104.82Z"/><path class="cls-1" d="M229.64,104.82h2.42v16.06h9.58v2h-12V104.82Z"/><path class="cls-1" d="M287.49,104.82h2.4v18.09h-2.4V104.82Z"/><path class="cls-1" d="M342.49,104.82h2.67l7.07,18.09h-2.66l-2-5.44h-7.65l-2,5.44h-2.47Zm-1.79,10.62h6.13l-3-8.43h-0.06Z"/><path class="cls-1" d="M397.62,104.82h2.55l9.54,14.67h0V104.82h2.29v18.09H409.4l-9.46-14.52h0v14.52h-2.28V104.82Z"/><path class="cls-1" d="M471.81,110.27c-0.53-2.57-2.58-3.85-5.08-3.85-4.31,0-6.13,3.54-6.13,7.32,0,4.13,1.82,7.58,6.16,7.58,3.17,0,5-2.23,5.22-5.22h2.41c-0.46,4.51-3.28,7.25-7.83,7.25-5.63,0-8.36-4.16-8.36-9.42s3-9.54,8.57-9.54c3.77,0,6.9,2,7.44,5.88h-2.38Z"/><path class="cls-1" d="M520,104.82h12.5v2H522.41v5.76h9.41v2h-9.41v6.26h10.17v2H520V104.82Z"/></svg>