<?xml version="1.0" encoding="utf-8"?>
<!-- Generator: Adobe Illustrator 18.1.1, SVG Export Plug-In . SVG Version: 6.00 Build 0)  -->
<!DOCTYPE svg PUBLIC "-//W3C//DTD SVG 1.1//EN" "http://www.w3.org/Graphics/SVG/1.1/DTD/svg11.dtd">
<svg version="1.1" id="Layer_1" xmlns="http://www.w3.org/2000/svg" xmlns:xlink="http://www.w3.org/1999/xlink" x="0px" y="0px"
	 viewBox="0 0 300 46.7" enable-background="new 0 0 300 46.7" xml:space="preserve">
<g>
	<path fill="#FFFFFF" d="M0,25.1c100,0,200,0,300,0c0,7.2,0,14.4,0,21.7c-0.3,0-0.7,0-1,0c-99.4,0-198.8,0-298.1,0
		c-0.3,0-0.6,0-0.9,0C0,39.5,0,32.3,0,25.1z M202.4,28.7c-4.2,0-7.6,3.3-7.6,7.4c0,4.1,3.4,7.5,7.6,7.5c4.2,0,7.6-3.3,7.6-7.4
		C210,31.9,206.7,28.7,202.4,28.7z M242.4,28.7c-4.3,0-7.6,3.3-7.5,7.5c0,4.2,3.4,7.5,7.6,7.4c4.2,0,7.6-3.3,7.6-7.5
		C250,31.9,246.7,28.7,242.4,28.7z M271.8,37.4c-0.2,1.9-1,3.2-2.6,4c-3.8,2-8.2-0.9-8-5.3c0.1-4,3.1-6.5,6.8-5.7
		c1.4,0.3,2.5,1.2,3.3,2.4c0.5-0.4,1-0.8,1.4-1.2c-2.2-3.7-8.5-3.8-11.2-1.1c-2.5,2.6-2.9,7.1-0.8,10.1c2,2.8,6.2,3.7,9.5,2.1
		c2.4-1.2,4-4.5,3.3-6.9c-1.9,0-3.8,0-5.7,0c0,0.5,0,1,0,1.5C269.2,37.4,270.5,37.4,271.8,37.4z M53.4,43.7c0-5,0-9.8,0-14.6
		c-0.5,0-1,0-1.6,0c0,3.5,0,7,0,10.6c-3.5-3.8-6.9-7.5-10.3-11.3c0,5,0,9.9,0,14.7c0.6,0,1,0,1.6,0c0-3.5,0-6.9,0-10.5
		C46.6,36.4,49.9,40,53.4,43.7z M174.4,32.6c3.5,3.8,6.9,7.4,10.3,11.1c0-5,0-9.8,0-14.7c-0.5,0-1,0-1.6,0c0,3.5,0,6.9,0,10.6
		c-3.5-3.8-6.8-7.5-10.3-11.2c0,5,0,9.9,0,14.7c0.5,0,1,0,1.6,0C174.4,39.7,174.4,36.3,174.4,32.6z M160.5,36.1c0,2.4,0,4.7,0,7
		c0.6,0,1.1,0,1.6,0c0-4.7,0-9.4,0-14.1c-0.6,0-1.1,0-1.7,0c0,1.8,0,3.5,0,5.3c-2.5,0-5,0-7.5,0c0-1.8,0-3.5,0-5.2
		c-0.6,0-1.1,0-1.6,0c0,4.7,0,9.3,0,14c0.6,0,1.1,0,1.7,0c0-2.4,0-4.7,0-7C155.5,36.1,157.9,36.1,160.5,36.1z M141.1,32.3
		c0-0.4,0-0.7,0-1c0.2-1-0.3-1.5-1.2-1.9c-2.1-1-4.3-1.1-6.4-0.3c-3.8,1.5-5.7,6-4,9.9c1.6,3.9,6.2,5.6,10.2,3.8
		c1.5-0.7,1.8-1.2,1.3-2.9c-3,3-6.6,2.3-8.6,0.3c-2.1-2.1-2.2-5.8-0.2-8.1C134.4,29.6,137.7,29.7,141.1,32.3z M112.1,29
		c0,4.8,0,9.4,0,14.1c2.5,0,4.9,0,7.3,0c0-0.5,0-1,0-1.6c-1.9,0-3.8,0-5.7,0c0-1.8,0-3.5,0-5.3c1.9,0,3.8,0,5.7,0c0-0.6,0-1.1,0-1.7
		c-1.9,0-3.8,0-5.7,0c0-1.4,0-2.6,0-4c1.9,0,3.8,0,5.6,0c0-0.6,0-1,0-1.5C116.9,29,114.5,29,112.1,29z M25.7,36.2c2,0,3.8,0,5.6,0
		c0-0.6,0-1.1,0-1.7c-1.9,0-3.8,0-5.6,0c0-1.4,0-2.7,0-4c1.9,0,3.8,0,5.6,0c0-0.5,0-1,0-1.5c-2.5,0-4.9,0-7.3,0c0,4.7,0,9.4,0,14.1
		c2.5,0,4.9,0,7.3,0c0-0.5,0-1,0-1.6c-1.9,0-3.8,0-5.7,0c0-1.6,0-3.1,0-4.5C25.6,36.8,25.6,36.6,25.7,36.2z M64.7,39.5
		c-1.7,0.6-1.8,0.9-0.8,2.3c1,1.4,3.1,2,5.1,1.5c1.8-0.5,2.9-1.8,3.1-3.6c0.2-2-0.6-3.4-2.4-4.3c-1-0.5-2.2-0.9-3.2-1.5
		c-1.2-0.7-1.4-2-0.7-3c0.7-0.9,2.2-1.1,3.1-0.3c0.4,0.3,0.7,0.7,1.1,1.1c0.4-0.3,0.9-0.6,1.3-0.8c-1-2-3.3-2.7-5.4-1.9
		c-2.4,1-3,3.9-1.2,5.8c0.5,0.5,1.1,0.8,1.7,1.1c0.9,0.5,1.9,0.8,2.7,1.3c1.1,0.6,1.5,1.8,1.2,3c-0.2,1-1.1,1.7-2.2,1.8
		c-1.3,0.2-2.3-0.3-2.9-1.4C65,40.3,64.9,39.9,64.7,39.5z M281.4,29.1c1.5,2.3,2.9,4.6,4.2,6.8c0.3,0.5,0.5,1.1,0.5,1.7
		c0.1,1.8,0,3.6,0,5.5c0.6,0,1.2,0,1.7,0c0-0.8,0.1-1.6,0-2.3c-0.4-2.8,0.4-5.3,2.1-7.6c1-1.3,1.7-2.7,2.6-4.1
		c-1.8-0.3-1.8-0.3-2.7,1.1c-1,1.6-1.9,3.2-2.9,4.8c-1-1.7-2-3.2-2.8-4.8C283.6,29.1,282.8,28.8,281.4,29.1z M98.9,43.1
		c0-4.2,0-8.3,0-12.6c1.4,0,2.7,0,3.9,0c0-0.6,0-1,0-1.5c-3.2,0-6.4,0-9.6,0c0,0.5,0,1,0,1.5c1.3,0,2.6,0,3.9,0c0,4.2,0,8.3,0,12.5
		C97.8,43.1,98.3,43.1,98.9,43.1z M220,29.1c0,4.7,0,9.4,0,14.1c2.4,0,4.6,0,7,0c0-0.5,0-1,0-1.6c-1.8,0-3.5,0-5.3,0
		c0-4.2,0-8.3,0-12.5C221.1,29.1,220.6,29.1,220,29.1z M7.6,43.1c2.4,0,4.7,0,6.9,0c0-0.6,0-1,0-1.6c-1.8,0-3.5,0-5.3,0
		c0-4.2,0-8.3,0-12.4c-0.6,0-1.1,0-1.7,0C7.6,33.8,7.6,38.4,7.6,43.1z"/>
	<path fill="#FFFFFF" d="M208.1,36.1c0,3.2-2.6,5.8-5.7,5.9c-3.1,0-5.8-2.6-5.8-5.8c0-3.2,2.6-5.9,5.8-5.9
		C205.6,30.3,208.1,32.9,208.1,36.1z"/>
	<path fill="#FFFFFF" d="M248.2,36.2c0,3.2-2.7,5.8-5.8,5.8c-3.1,0-5.8-2.7-5.8-5.9c0-3.2,2.6-5.8,5.8-5.8
		C245.7,30.3,248.2,32.9,248.2,36.2z"/>
	<path fill="#FFFFFF" d="M14.1,0.3H5.9L5.2,3.7h7.5c2.6,0,3.5,1.3,3.5,3.1c0,3.3-2.3,4.8-5.6,4.8h-7L2,20.1h4l1-5.1h3.3
		c5.9,0,10.2-3,10.2-9.2C20.6,2.8,18.9,0.3,14.1,0.3z"/>
	<path fill="#FFFFFF" d="M44,16.6l-0.6,3.5H28.1L32,0.3h14.6l-0.7,3.5H35.2l-1,5h9l-0.6,3.4h-9l-0.9,4.4H44z"/>
	<path fill="#FFFFFF" d="M73,5.9c0-2.9-2.4-5.6-6.5-5.6h-8.8l-0.7,3.5h8.1c2.6,0,3.6,1.3,3.6,3.1c0,3.2-2.4,4.9-5.7,4.9h-7.6
		l-1.6,8.4h4l1-5.1h2.8c0.5,0,1.1,0,1.6,0l2.8,5.1H71l-3.5-5.9C71,12.8,73,10.1,73,5.9z"/>
	<path fill="#FFFFFF" d="M88.1,3.8l-1.4,7.1h9.5l-0.6,3.5H86l-1.2,5.8H81l3.9-19.8h14.9l-0.7,3.5H88.1z"/>
	<path fill="#FFFFFF" d="M127.6,9c0,7-5.5,11.4-11.9,11.4c-5.4,0-9.4-3.8-9.4-8.7c0-6.2,4.9-11.6,11.9-11.6
		C123.6,0.1,127.6,4,127.6,9z M123.5,9.4c0-3.1-2.4-5.5-5.7-5.5c-4.1,0-7.3,3.5-7.3,7.4c0,3,2.4,5.3,5.7,5.3
		C120,16.6,123.5,13.5,123.5,9.4z"/>
	<path fill="#FFFFFF" d="M155.5,5.9c0-2.9-2.4-5.6-6.5-5.6h-8.8l-0.7,3.5h8.1c2.6,0,3.5,1.3,3.5,3.1c0,3.2-2.4,4.9-5.6,4.9H138
		l-1.6,8.4h4l1-5.1h2.8c0.5,0,1.1,0,1.6,0l2.8,5.1h4.8l-3.5-5.9C153.4,12.8,155.5,10.1,155.5,5.9z"/>
	<path fill="#FFFFFF" d="M187.6,0.3l-3.9,19.8h-4.1l2.2-11l-7.8,8.6l-4.4-8.6l-2.2,11h-4l3.9-19.8h2l6,11.4l10.5-11.4H187.6z"/>
	<path fill="#FFFFFF" d="M208.8,0.3h-2l-13.3,19.8h4.3l2.6-4l2.1-3.4l4.3-6.6l1.7,6.6l0.8,3.4l1,4h4.3L208.8,0.3z"/>
	<path fill="#FFFFFF" d="M245.8,0.3l-3.9,19.8h-2l-9.4-12.5l-2.5,12.5h-4l3.9-19.8h2l9.3,12.5l2.5-12.5H245.8z"/>
	<path fill="#FFFFFF" d="M269.2,13.9l2.5,2.7c-2.3,2.3-5.5,3.8-8.6,3.8c-5,0-8.8-3.7-8.8-8.6c0-6.6,5.1-11.8,12-11.8
		c3.3,0,6.1,1.5,7.6,3.8l-3.4,2.7c-0.9-1.6-2.7-2.7-4.8-2.7c-3.8,0-7.2,3.5-7.2,7.4c0,3,2.1,5.3,5.2,5.3
		C265.7,16.5,267.9,15.5,269.2,13.9z"/>
	<path fill="#FFFFFF" d="M297.4,16.6l-0.6,3.5h-15.2l3.9-19.8H300l-0.7,3.5h-10.7l-1,5h9l-0.6,3.4h-9l-0.9,4.4H297.4z"/>
</g>
</svg>
