<?xml version="1.0" encoding="UTF-8" standalone="no"?>
<!-- Created with Inkscape (http://www.inkscape.org/) -->

<svg
   xmlns:dc="http://purl.org/dc/elements/1.1/"
   xmlns:cc="http://creativecommons.org/ns#"
   xmlns:rdf="http://www.w3.org/1999/02/22-rdf-syntax-ns#"
   xmlns:svg="http://www.w3.org/2000/svg"
   xmlns="http://www.w3.org/2000/svg"
   xmlns:sodipodi="http://sodipodi.sourceforge.net/DTD/sodipodi-0.dtd"
   xmlns:inkscape="http://www.inkscape.org/namespaces/inkscape"
   width="927.90747"
   height="187.03674"
   id="svg5089"
   version="1.1"
   inkscape:version="0.48.5 r10040"
   sodipodi:docname="New document 7">
  <defs
     id="defs5091" />
  <sodipodi:namedview
     id="base"
     pagecolor="#ffffff"
     bordercolor="#666666"
     borderopacity="1.0"
     inkscape:pageopacity="0.0"
     inkscape:pageshadow="2"
     inkscape:zoom="0.35"
     inkscape:cx="293.23946"
     inkscape:cy="-106.48166"
     inkscape:document-units="px"
     inkscape:current-layer="layer1"
     showgrid="false"
     fit-margin-top="0"
     fit-margin-left="0"
     fit-margin-right="0"
     fit-margin-bottom="0"
     inkscape:window-width="1920"
     inkscape:window-height="1018"
     inkscape:window-x="-8"
     inkscape:window-y="-8"
     inkscape:window-maximized="1" />
  <metadata
     id="metadata5094">
    <rdf:RDF>
      <cc:Work
         rdf:about="">
        <dc:format>image/svg+xml</dc:format>
        <dc:type
           rdf:resource="http://purl.org/dc/dcmitype/StillImage" />
        <dc:title></dc:title>
      </cc:Work>
    </rdf:RDF>
  </metadata>
  <g
     inkscape:label="Layer 1"
     inkscape:groupmode="layer"
     id="layer1"
     transform="translate(-81.76054,-238.84377)">
    <g
       transform="matrix(1.25,0,0,-1.25,-704.15521,8408.0909)"
       id="g4966">
      <g
         transform="translate(898.5394,6529.8457)"
         id="g3131">
        <path
           inkscape:connector-curvature="0"
           id="path3133"
           style="fill:#FFFFFF;fill-opacity:1;fill-rule:nonzero;stroke:none"
           d="m 0,0 c -7.793,0 -13.005,-5.502 -13.005,-13.213 0,-7.961 5.463,-13.171 12.63,-13.171 3.419,0 6.753,1.166 9.629,3.458 l -0.042,-3.168 c -2.874,-1.833 -6.376,-2.791 -9.46,-2.791 -8.961,0 -15.672,6.294 -15.672,15.672 0,9.169 6.835,15.588 15.672,15.588 3.791,0 7.043,-1.042 9.712,-3.126 L 9.38,-3.753 C 6.46,-1.253 3.503,0 0,0" />
      </g>
      <g
         transform="translate(949.4441,6501.7495)"
         id="g3135">
        <path
           inkscape:connector-curvature="0"
           id="path3137"
           style="fill:#FFFFFF;fill-opacity:1;fill-rule:nonzero;stroke:none"
           d="m 0,0 -10.462,14.215 -1.627,0 0,-14.215 -2.707,0 0,29.803 5.46,0 c 6.458,0 9.671,-2.664 9.671,-8.127 0,-4.67 -2.96,-7.461 -7.751,-7.461 L 3.292,0 0,0 z m -12.089,16.424 2.713,0 c 4.625,0 6.791,1.084 6.791,5.334 0,4.292 -2.04,5.671 -6.791,5.671 l -2.713,0 0,-11.005 z" />
      </g>
      <g
         transform="translate(1003.264,6505.5459)"
         id="g3139">
        <path
           inkscape:connector-curvature="0"
           id="path3141"
           style="fill:#FFFFFF;fill-opacity:1;fill-rule:nonzero;stroke:none"
           d="m 0,0 c -3.042,-2.959 -7.004,-4.584 -11.296,-4.584 -4.334,0 -8.254,1.625 -11.253,4.584 -3.002,2.958 -4.669,6.875 -4.669,11.045 0,4.252 1.625,8.167 4.669,11.127 2.999,2.962 6.879,4.503 11.253,4.503 4.377,0 8.294,-1.541 11.296,-4.503 C 3.044,19.212 4.669,15.253 4.669,11.045 4.669,6.835 3.002,2.916 0,0 m 1.791,11.045 c 0,7.378 -5.837,13.256 -13.087,13.256 -7.209,0 -13.044,-5.836 -13.044,-13.256 0,-7.336 5.751,-13.215 13.044,-13.215 7.294,0 13.087,5.879 13.087,13.215" />
      </g>
      <g
         transform="translate(1034.7883,6508.0059)"
         id="g3143">
        <path
           inkscape:connector-curvature="0"
           id="path3145"
           style="fill:#FFFFFF;fill-opacity:1;fill-rule:nonzero;stroke:none"
           d="m 0,0 c 0.836,-2.962 3.166,-4.629 6.086,-4.629 3.751,0 6.001,2.295 6.001,6.291 0,3.672 -2.171,5.048 -5.669,6.882 -4.711,2.456 -7.46,4.376 -7.46,8.542 0,4.21 3.126,7.17 7.708,7.17 3.002,0 5.215,-1.293 6.587,-3.791 l -2.084,-1.251 c -0.831,1.707 -2.501,2.625 -4.669,2.625 -2.96,0 -4.793,-1.878 -4.793,-4.797 0,-3.623 2.711,-4.457 6.587,-6.583 4.376,-2.374 6.376,-4.294 6.376,-8.797 0,-5.331 -3.335,-8.705 -8.709,-8.705 -3.917,0 -6.713,1.957 -8.298,5.79 L 0,0 z" />
      </g>
      <g
         transform="translate(1076.354,6508.0059)"
         id="g3147">
        <path
           inkscape:connector-curvature="0"
           id="path3149"
           style="fill:#FFFFFF;fill-opacity:1;fill-rule:nonzero;stroke:none"
           d="m 0,0 c 0.831,-2.962 3.166,-4.629 6.083,-4.629 3.751,0 6.004,2.295 6.004,6.291 0,3.672 -2.168,5.048 -5.669,6.882 -4.711,2.456 -7.462,4.376 -7.462,8.542 0,4.21 3.128,7.17 7.713,7.17 3.001,0 5.207,-1.293 6.584,-3.791 l -2.084,-1.251 c -0.836,1.707 -2.503,2.625 -4.669,2.625 -2.957,0 -4.793,-1.878 -4.793,-4.797 0,-3.623 2.707,-4.457 6.587,-6.583 4.376,-2.374 6.376,-4.294 6.376,-8.797 0,-5.331 -3.332,-8.705 -8.708,-8.705 -3.92,0 -6.714,1.957 -8.297,5.79 L 0,0 z" />
      </g>
      <g
         transform="translate(884.0356,6475.9741)"
         id="g3151">
        <path
           inkscape:connector-curvature="0"
           id="path3153"
           style="fill:#FFFFFF;fill-opacity:1;fill-rule:nonzero;stroke:none"
           d="m 0,0 4.461,0 1.332,0 c 2.833,0 5.044,-0.086 7.003,-1.499 1.834,-1.336 2.96,-3.795 2.96,-6.717 0,-5.875 -3.334,-8.207 -9.921,-8.207 l -3.126,0 0,-13.382 -2.709,0 L 0,0 z m 4.545,-14.047 c 5.292,0 8.333,0.584 8.333,5.625 0,2.126 -0.751,3.877 -1.999,4.875 -1.377,1.129 -3.377,1.168 -6.334,1.168 l -1.836,0 0,-11.668 1.836,0 z" />
      </g>
      <g
         transform="translate(925.6833,6475.9741)"
         id="g3155">
        <path
           inkscape:connector-curvature="0"
           id="path3157"
           style="fill:#FFFFFF;fill-opacity:1;fill-rule:nonzero;stroke:none"
           d="m 0,0 14.754,0 0,-2.543 -12.043,0 0,-9.338 12.043,0 0,-2.54 -12.043,0 0,-12.839 12.043,0 0,-2.545 L 0,-29.805 0,0 z" />
      </g>
      <g
         transform="translate(982.6721,6446.1685)"
         id="g3159">
        <path
           inkscape:connector-curvature="0"
           id="path3161"
           style="fill:#FFFFFF;fill-opacity:1;fill-rule:nonzero;stroke:none"
           d="m 0,0 -10.462,14.218 -1.625,0 0,-14.218 -2.711,0 0,29.805 5.46,0 c 6.46,0 9.668,-2.667 9.668,-8.132 0,-4.664 -2.957,-7.455 -7.75,-7.455 L 3.292,0 0,0 z m -12.087,16.423 2.709,0 c 4.627,0 6.793,1.089 6.793,5.337 0,4.292 -2.042,5.669 -6.793,5.669 l -2.709,0 0,-11.006 z" />
      </g>
      <g
         transform="translate(1010.6882,6475.9741)"
         id="g3163">
        <path
           inkscape:connector-curvature="0"
           id="path3165"
           style="fill:#FFFFFF;fill-opacity:1;fill-rule:nonzero;stroke:none"
           d="m 0,0 14.759,0 0,-2.543 -12.048,0 0,-9.338 11.586,0 0,-2.54 -11.586,0 0,-15.384 -2.711,0 L 0,0 z" />
      </g>
      <g
         transform="translate(1078.1825,6449.9644)"
         id="g3167">
        <path
           inkscape:connector-curvature="0"
           id="path3169"
           style="fill:#FFFFFF;fill-opacity:1;fill-rule:nonzero;stroke:none"
           d="m 0,0 c -3.042,-2.96 -7.006,-4.584 -11.298,-4.584 -4.332,0 -8.252,1.624 -11.253,4.584 -3,2.959 -4.669,6.875 -4.669,11.045 0,4.255 1.627,8.17 4.669,11.127 3.001,2.962 6.877,4.503 11.253,4.503 4.376,0 8.296,-1.541 11.298,-4.503 C 3.044,19.215 4.669,15.253 4.669,11.045 4.669,6.835 3.002,2.92 0,0 m 1.791,11.045 c 0,7.378 -5.837,13.255 -13.089,13.255 -7.207,0 -13.045,-5.835 -13.045,-13.255 0,-7.336 5.754,-13.213 13.045,-13.213 7.296,0 13.089,5.877 13.089,13.213" />
      </g>
      <g
         transform="translate(1124.4594,6446.1685)"
         id="g3171">
        <path
           inkscape:connector-curvature="0"
           id="path3173"
           style="fill:#FFFFFF;fill-opacity:1;fill-rule:nonzero;stroke:none"
           d="m 0,0 -10.464,14.218 -1.621,0 0,-14.218 -2.709,0 0,29.805 5.458,0 c 6.463,0 9.666,-2.667 9.666,-8.132 0,-4.664 -2.953,-7.455 -7.746,-7.455 L 3.292,0 0,0 z m -12.085,16.423 2.705,0 c 4.629,0 6.793,1.089 6.793,5.337 0,4.292 -2.04,5.669 -6.793,5.669 l -2.705,0 0,-11.006 z" />
      </g>
      <g
         transform="translate(1155.6036,6468.9277)"
         id="g3175">
        <path
           inkscape:connector-curvature="0"
           id="path3177"
           style="fill:#FFFFFF;fill-opacity:1;fill-rule:nonzero;stroke:none"
           d="m 0,0 -2.25,-22.76 -2.791,0 4.043,31.054 11.42,-26.509 11.839,26.509 3.833,-31.054 -2.796,0 L 21.093,0 10.462,-23.921 0,0 z" />
      </g>
      <g
         transform="translate(1217.1405,6477.1387)"
         id="g3179">
        <path
           inkscape:connector-curvature="0"
           id="path3181"
           style="fill:#FFFFFF;fill-opacity:1;fill-rule:nonzero;stroke:none"
           d="m 0,0 12.546,-30.969 -2.96,0 -3.795,10.089 -12.167,0 -3.962,-10.089 -2.751,0 L 0,0 z m 4.917,-18.55 -5.083,12.966 -5.294,-12.966 10.377,0 z" />
      </g>
      <g
         transform="translate(1253.8275,6477.2222)"
         id="g3183">
        <path
           inkscape:connector-curvature="0"
           id="path3185"
           style="fill:#FFFFFF;fill-opacity:1;fill-rule:nonzero;stroke:none"
           d="m 0,0 21.093,-24.926 0,23.678 2.542,0 0,-30.679 -21.092,24.966 0,-24.092 -2.543,0 L 0,0 z" />
      </g>
      <g
         transform="translate(1320.1978,6474.2642)"
         id="g3187">
        <path
           inkscape:connector-curvature="0"
           id="path3189"
           style="fill:#FFFFFF;fill-opacity:1;fill-rule:nonzero;stroke:none"
           d="m 0,0 c -7.795,0 -13.003,-5.502 -13.003,-13.213 0,-7.961 5.459,-13.169 12.626,-13.169 3.419,0 6.753,1.164 9.631,3.459 l -0.042,-3.168 c -2.876,-1.836 -6.384,-2.794 -9.46,-2.794 -8.964,0 -15.672,6.294 -15.672,15.672 0,9.169 6.832,15.588 15.672,15.588 3.788,0 7.041,-1.04 9.71,-3.126 L 9.378,-3.753 C 6.46,-1.25 3.501,0 0,0" />
      </g>
      <g
         transform="translate(1356.3026,6475.9741)"
         id="g3191">
        <path
           inkscape:connector-curvature="0"
           id="path3193"
           style="fill:#FFFFFF;fill-opacity:1;fill-rule:nonzero;stroke:none"
           d="m 0,0 14.756,0 0,-2.543 -12.047,0 0,-9.338 12.047,0 0,-2.54 -12.047,0 0,-12.839 12.047,0 0,-2.545 L 0,-29.805 0,0 z" />
      </g>
      <g
         transform="translate(898.5394,6418.6846)"
         id="g3195">
        <path
           inkscape:connector-curvature="0"
           id="path3197"
           style="fill:#FFFFFF;fill-opacity:1;fill-rule:nonzero;stroke:none"
           d="m 0,0 c -7.793,0 -13.005,-5.505 -13.005,-13.213 0,-7.964 5.463,-13.171 12.63,-13.171 3.419,0 6.753,1.166 9.629,3.458 l -0.042,-3.168 c -2.874,-1.831 -6.376,-2.794 -9.46,-2.794 -8.961,0 -15.672,6.295 -15.672,15.675 0,9.167 6.835,15.589 15.672,15.589 3.791,0 7.043,-1.042 9.712,-3.13 L 9.38,-3.756 C 6.46,-1.253 3.503,0 0,0" />
      </g>
      <g
         transform="translate(960.4497,6394.3833)"
         id="g3199">
        <path
           inkscape:connector-curvature="0"
           id="path3201"
           style="fill:#FFFFFF;fill-opacity:1;fill-rule:nonzero;stroke:none"
           d="m 0,0 c -3.044,-2.958 -7.004,-4.585 -11.298,-4.585 -4.334,0 -8.254,1.627 -11.253,4.585 -3,2.959 -4.669,6.879 -4.669,11.045 0,4.252 1.627,8.172 4.669,11.127 2.999,2.962 6.877,4.505 11.253,4.505 4.376,0 8.296,-1.543 11.298,-4.505 C 3.042,19.217 4.664,15.255 4.664,11.045 4.664,6.834 2.999,2.919 0,0 m 1.789,11.045 c 0,7.378 -5.833,13.258 -13.087,13.258 -7.21,0 -13.045,-5.838 -13.045,-13.258 0,-7.338 5.754,-13.213 13.045,-13.213 7.296,0 13.087,5.875 13.087,13.213" />
      </g>
      <g
         transform="translate(991.9312,6420.3926)"
         id="g3203">
        <path
           inkscape:connector-curvature="0"
           id="path3205"
           style="fill:#FFFFFF;fill-opacity:1;fill-rule:nonzero;stroke:none"
           d="m 0,0 2.707,0 0,-27.26 10.214,0 0,-2.541 L 0,-29.801 0,0 z" />
      </g>
      <g
         transform="translate(1029.9504,6420.3926)"
         id="g3207">
        <path
           inkscape:connector-curvature="0"
           id="path3209"
           style="fill:#FFFFFF;fill-opacity:1;fill-rule:nonzero;stroke:none"
           d="m 0,0 2.714,0 0,-27.26 10.209,0 0,-2.541 L 0,-29.801 0,0 z" />
      </g>
      <g
         transform="translate(1067.9734,6420.3926)"
         id="g3211">
        <path
           inkscape:connector-curvature="0"
           id="path3213"
           style="fill:#FFFFFF;fill-opacity:1;fill-rule:nonzero;stroke:none"
           d="m 0,0 14.756,0 0,-2.543 -12.045,0 0,-9.338 12.045,0 0,-2.54 -12.045,0 0,-12.839 12.045,0 0,-2.541 L 0,-29.801 0,0 z" />
      </g>
      <g
         transform="translate(1124.6656,6418.6846)"
         id="g3215">
        <path
           inkscape:connector-curvature="0"
           id="path3217"
           style="fill:#FFFFFF;fill-opacity:1;fill-rule:nonzero;stroke:none"
           d="m 0,0 c -7.795,0 -13.003,-5.505 -13.003,-13.213 0,-7.964 5.463,-13.171 12.628,-13.171 3.419,0 6.751,1.166 9.631,3.458 l -0.044,-3.168 c -2.876,-1.831 -6.376,-2.794 -9.46,-2.794 -8.961,0 -15.672,6.295 -15.672,15.675 0,9.167 6.84,15.589 15.672,15.589 3.795,0 7.045,-1.042 9.71,-3.13 L 9.38,-3.756 C 6.467,-1.253 3.505,0 0,0" />
      </g>
      <g
         transform="translate(1166.0724,6417.8491)"
         id="g3219">
        <path
           inkscape:connector-curvature="0"
           id="path3221"
           style="fill:#FFFFFF;fill-opacity:1;fill-rule:nonzero;stroke:none"
           d="m 0,0 -8.214,0 0,2.543 19.128,0 0,-2.543 -8.21,0 0,-27.258 -2.704,0 L 0,0 z" />
      </g>
      <path
         inkscape:connector-curvature="0"
         id="path3223"
         style="fill:#FFFFFF;fill-opacity:1;fill-rule:nonzero;stroke:none"
         d="m 1202.299,6420.393 2.711,0 0,-29.801 -2.711,0 0,29.801 z" />
      <g
         transform="translate(1259.0348,6394.3833)"
         id="g3225">
        <path
           inkscape:connector-curvature="0"
           id="path3227"
           style="fill:#FFFFFF;fill-opacity:1;fill-rule:nonzero;stroke:none"
           d="m 0,0 c -3.042,-2.958 -7.006,-4.585 -11.3,-4.585 -4.33,0 -8.25,1.627 -11.251,4.585 -3.002,2.959 -4.669,6.879 -4.669,11.045 0,4.252 1.625,8.172 4.669,11.127 3.001,2.962 6.879,4.505 11.251,4.505 4.378,0 8.298,-1.543 11.3,-4.505 C 3.037,19.217 4.669,15.255 4.669,11.045 4.669,6.834 3.002,2.919 0,0 m 1.791,11.045 c 0,7.378 -5.837,13.258 -13.091,13.258 -7.205,0 -13.043,-5.838 -13.043,-13.258 0,-7.338 5.754,-13.213 13.043,-13.213 7.303,0 13.091,5.875 13.091,13.213" />
      </g>
      <g
         transform="translate(1290.5165,6421.645)"
         id="g3229">
        <path
           inkscape:connector-curvature="0"
           id="path3231"
           style="fill:#FFFFFF;fill-opacity:1;fill-rule:nonzero;stroke:none"
           d="m 0,0 21.088,-24.928 0,23.676 2.543,0 0,-30.679 -21.093,24.965 0,-24.087 -2.538,0 L 0,0 z" />
      </g>
      <g
         transform="translate(840.0956,6527.3003)"
         id="g3233">
        <path
           inkscape:connector-curvature="0"
           id="path3235"
           style="fill:#FFFFFF;fill-opacity:1;fill-rule:nonzero;stroke:none"
           d="m 0,0 c -10.72,7.692 -24.656,7.9 -38.589,8.097 l -28.011,0 -11.268,0 -6.149,0 -50.588,-59.934 -17.815,-20.294 -58.943,-69.401 17.613,0 54.377,63.98 30.464,-63.98 3.31,0 14.303,0 0.679,0 11.183,60.339 28.147,0 c 13.968,0 27.558,1.216 40.678,9.722 12.873,8.294 20.867,20.854 23.424,34.62 C 15.59,-21.87 11.462,-8.095 0,0 m -2.133,-36.645 c -1.803,-9.722 -8.296,-19.647 -17.777,-24.907 -10.16,-5.669 -20.765,-6.074 -31.29,-6.074 l -40.686,0.094 -9.767,-52.715 -26.888,55.248 50.47,59.564 35.343,0 -0.005,-0.004 c 9.319,0.135 19.023,0.517 27.152,-3.265 10.839,-4.865 15.85,-14.987 13.448,-27.941" />
      </g>
      <g
         transform="translate(699.7382,6487.5347)"
         id="g3237">
        <path
           inkscape:connector-curvature="0"
           id="path3239"
           style="fill:#FFFFFF;fill-opacity:1;fill-rule:nonzero;stroke:none"
           d="m 0,0 -22.825,47.863 -17.412,0 28.667,-61.2 L 0,0 z" />
      </g>
    </g>
  </g>
</svg>
