<?xml version="1.0" encoding="utf-8"?>
<!-- Generator: Adobe Illustrator 18.1.1, SVG Export Plug-In . SVG Version: 6.00 Build 0)  -->
<svg version="1.1" id="Layer_1" xmlns="http://www.w3.org/2000/svg" xmlns:xlink="http://www.w3.org/1999/xlink" x="0px" y="0px"
	 viewBox="0 0 589.9 102.9" enable-background="new 0 0 589.9 102.9" xml:space="preserve">
<g>
	<polygon fill="#231F20" points="47.7,0 16.8,51.4 27.3,51.4 49,13.3 56.8,51.4 67.3,51.4 55.2,0 	"/>
	<polygon fill="#231F20" points="218.7,0 187.7,51.4 198.2,51.4 220,13.3 227.8,51.4 238.2,51.4 226.1,0 	"/>
	<g>
		<defs>
			<rect id="SVGID_1_" x="0" y="0" width="589.9" height="102.9"/>
		</defs>
		<clipPath id="SVGID_2_">
			<use xlink:href="#SVGID_1_"  overflow="visible"/>
		</clipPath>
		<path clip-path="url(#SVGID_2_)" fill="#231F20" d="M127.6,0h-10.8l-2.5,13.6h9.5l0.8-4.3h0.7c5,0,10.3,0.1,14,3.1
			c3.9,3.1,5.3,8.3,4.3,13.6c-0.9,5-4.2,9.5-8.6,12.7c-4.6,3.4-10.2,3.3-10.2,3.3L109.1,42l-1.8,9.4h11c7.9,0,15.3-0.6,22.5-5.9
			c6.5-4.7,11.1-12.4,12.5-19.6c1.4-7.3-0.4-15.2-5.1-20C143,0.8,135.3,0.1,127.6,0"/>
		<path clip-path="url(#SVGID_2_)" fill="#231F20" d="M312.2,2.7c-3.8-2.9-8.5-2.7-13.4-2.7h-12.1l-1.7,8.7H297v0
			c2,0,4.5-0.1,6.2,0.4c2.7,0.8,4.8,4,4.2,7.1c-0.6,3-3.1,5.5-6.7,6.5c-1.8,0.5-17.9,0.3-17.9,0.3l-5.7,28.4h9.5l3.6-19.5h1.9
			c5.1,0,11,0.3,15.9-3.1c4.6-3.2,7.6-8.1,8.6-13.1C317.5,10.5,315.9,5.6,312.2,2.7"/>
	</g>
	<polygon fill="#231F20" points="356.2,0 354.5,9 363.9,9 356.1,51.4 365.6,51.4 373.5,9 383.1,9 384.8,0 	"/>
	<polygon fill="#231F20" points="424.4,0 414.9,51.4 424.4,51.4 434,0 	"/>
	<polygon fill="#231F20" points="512.3,0 491.2,39.1 484.6,0 474.5,0 485,51.4 492.8,51.4 522.3,0 	"/>
	<polygon fill="#231F20" points="562.2,0 552.7,51.4 580.3,51.4 582,42.6 563.9,42.6 566.1,29.7 583.5,29.7 585.2,21.1 567.8,21.1 
		570,8.7 588.1,8.7 589.9,0 	"/>
	<g>
		<defs>
			<rect id="SVGID_3_" x="0" y="0" width="589.9" height="102.9"/>
		</defs>
		<clipPath id="SVGID_4_">
			<use xlink:href="#SVGID_3_"  overflow="visible"/>
		</clipPath>
		<path clip-path="url(#SVGID_4_)" fill="#231F20" d="M63.8,81c0,6.3-3.5,13.5-9.5,16h66.4c6.5,0,14,2.5,14,2.5L95.5,65.8l-40.3-0.3
			C60.3,67.7,63.8,75.2,63.8,81"/>
		<path clip-path="url(#SVGID_4_)" fill="#231F20" d="M39.5,72.9c-1.6-1.8-3.6-3.2-6.1-4.1c-0.1,0.2-0.2,0.4-0.2,0.6
			c-0.1,0.2-0.1,0.4-0.3,0.6c-0.1,0.1-0.2,0.2-0.3,0.3c-0.3,0.3-0.7,0.7-1,1c0,0,0,0,0,0c0.4-0.2,0.8-0.4,1.2-0.7
			c0.1-0.1,0.3-0.2,0.4-0.2c0.2,0,0.5,0.2,0.7,0.3c0.7,0.3,1.3,0.6,1.8,1.1c1.8,1.5,2.5,3.8,2.5,7.1c0,0.9-0.1,2.1-0.9,2.1
			c-0.5,0.1-1.1-0.1-1.6-0.2c-1.9-0.2-3.1,0.5-4.2,1.3c0.1,1.2,0.4,2.3,0.8,3.1c-0.6-0.9-1.3-1.9-1.6-3.2c-0.4-1.5,0.2-2.8,0.6-3.9
			c-0.1-0.2-0.3-0.4-0.4-0.5c0.2,0.1,0.2,0.3,0.4,0.3c0.3,0.1,0.6-0.1,0.8-0.2c0.5-0.3,1-0.9,1.4-1.3c0.1-0.1,0.3-0.4,0.5-0.4
			c0.1,0,0.2,0.2,0.3,0.2c0.1-0.3,0.1-0.8,0-1c-0.2-0.3-0.6-0.4-1-0.4c0,0.2,0.2,0.2,0.1,0.5c-0.5,0.4-1.1,0.7-1.6,1
			c0.2-0.5,0.6-1.1,0.9-1.7c0.1-0.2,0.2-0.5,0.4-0.5c0.1,0,0.3,0.1,0.3,0.2c-0.1,0.2-0.2,0.4-0.3,0.6c0.2-0.1,0.3-0.3,0.5-0.5
			c0.2-0.2,0.6-0.3,0.8-0.5c0.3-0.2,0.3-0.5,0.4-0.9c0,0,0,0,0,0c-0.3,0.5-0.8,1-1.3,1.2c-0.1-0.4-0.1-0.7-0.3-0.9
			c-0.3-0.2-0.9,0-1.1,0.2c-0.1,0.1-0.2,0.3-0.4,0.4c-0.4,0.4-0.8,0.9-1.1,1.2c-0.5-0.2-1.1,0.1-1.1,0.6c-0.5,0.1-0.9,0.2-1.4,0.4
			c0.1,0.1,0.2,0.2,0.3,0.3c0,0,0.3,0.2,0.3,0.3c0,0-0.4,0.2-0.4,0.2c-0.4,0.2-0.9,0.5-1.2,0.7c0.5,0,0.9,0.1,1.3,0.2
			c-0.4,0.4-1,0.9-1.4,1.3c-0.1,0.1-0.2,0.1-0.2,0.2c0.4-0.1,0.9-0.2,1.3-0.3c-0.4,0.4-0.9,0.9-1.3,1.3c-0.1,0.1-0.2,0.1-0.1,0.2
			c0.4-0.1,0.9-0.2,1.4-0.2c-0.2,0.6-0.4,1.1-0.7,1.6c-0.7-0.7-1.7-1-3.2-0.9c-0.4,0-0.9,0.1-1.3,0c-0.9-0.3-0.8-2.3-0.7-3.4
			c0.2-3.5,1.6-5.6,4.2-6.8c0.2-0.1,0.5-0.3,0.7-0.3c0.1,0,0.3,0.1,0.4,0.2c0.4,0.2,0.8,0.5,1.2,0.7c0,0-0.1-0.1-0.1-0.2
			c-0.3-0.3-0.6-0.5-0.9-0.8c-0.1-0.1-0.3-0.2-0.4-0.3c-0.1-0.2-0.1-0.4-0.2-0.6c-0.1-0.2-0.2-0.4-0.2-0.6c-2.5,0.8-4.5,2.3-6.1,4.1
			c-0.8,0.9-1.5,1.9-2,3.1c-0.5,1.2-0.9,2.5-0.9,4.1c0.1-0.6,0.4-1.1,0.7-1.4c-0.4,1-0.7,2.3-0.6,3.7c0.1,1.3,0.4,2.5,0.8,3.5
			c-0.3-1.6-0.2-3.8,0.7-4.7c-0.1,1-0.2,2.2-0.1,3.2c0.4,3.1,2.3,4.7,4.3,6.1c-0.5-0.6-0.9-1.3-1.3-2.1c-0.4-0.8-0.7-1.6-0.6-2.7
			c0.5,1.5,1.5,2.5,2.8,3.4c-0.3,0.3-0.5,0.8-0.4,1.5c0.1,0.5,0.3,0.9,0.7,1.3c1,1,2.4,1.5,4.2,1.7c1.3,0.1,2.6,0,3.4-0.4
			c0.7-0.3,1.3-0.7,1.8-1.1c0.1-0.1,0.4-0.4,0.6-0.4c0.3-0.1,0.5,0.1,0.8,0.1c0.2-0.6,0.4-1.3,0.6-1.9c-0.6,0.4-1.2,0.7-1.8,1
			c0,0.2,0.1,0.3,0.1,0.5c-0.9,0.8-2.2,1.2-3.8,1.3c-0.8,0-1.6-0.1-2.2-0.3c-0.6-0.2-1.3-0.5-1.4-1.2c1.1,0.6,2.5,1.1,4.1,0.8
			c1.5-0.2,2.6-0.8,3.1-2c1.9-0.9,3.2-2.4,4.2-4.2c0.1,1.1-0.3,2-0.6,2.7c-0.4,0.8-0.9,1.4-1.3,2.1c2-1.5,3.9-3.1,4.2-6.1
			c0.1-1,0.1-2.2-0.1-3.2c0.9,0.9,1,3.1,0.7,4.7c0.4-1,0.7-2.2,0.8-3.5c0.1-1.4-0.1-2.7-0.5-3.7c0.4,0.3,0.6,0.8,0.8,1.4
			C42.4,76.8,41.1,74.7,39.5,72.9"/>
		<path clip-path="url(#SVGID_4_)" fill="#231F20" d="M94.3,61.1l44.4,37.5c0,0,4.7,4.2,17.1,4.2h433.8V61.1H94.3z"/>
		<path clip-path="url(#SVGID_4_)" fill="#231F20" d="M42.9,86.6c-0.7,1.6-1.7,3-2.9,4.1c-1.2,1.2-2.5,2.1-4.1,2.9
			c-1.6,0.7-3.5,1.3-5.7,1.3c-2.3,0-4.1-0.5-5.7-1.2c-1.6-0.8-3-1.7-4.1-2.8c-1.2-1.2-2.1-2.5-2.9-4.1c-0.7-1.6-1.3-3.5-1.3-5.7
			c0-2.3,0.5-4.1,1.2-5.8c0.7-1.6,1.7-2.9,2.9-4.1c1.2-1.2,2.5-2.1,4.1-2.9c1.6-0.7,3.4-1.2,5.7-1.2c2.2-0.1,4.2,0.5,5.8,1.2
			c1.6,0.7,3,1.7,4.1,2.8c1.2,1.2,2.1,2.5,2.9,4.1c0.7,1.6,1.2,3.5,1.2,5.7C44.1,83.2,43.7,85,42.9,86.6 M43.8,74.6
			c-1.6-3.4-4.1-5.9-7.6-7.4c-1.7-0.7-3.9-1.4-6.3-1.2h0c-2.4,0-4.4,0.6-6.1,1.4c-1.7,0.8-3.2,1.9-4.4,3.1c-1.3,1.3-2.2,2.7-3,4.5
			c-0.8,1.8-1.2,3.8-1.2,6.3c0,2.4,0.6,4.5,1.4,6.1c1.6,3.3,4.2,5.9,7.6,7.4C26,95.6,28,96,30.5,96c2.3,0,4.4-0.6,6.1-1.4
			c1.7-0.8,3.2-1.9,4.4-3.1c1.2-1.3,2.2-2.7,3-4.5c0.7-1.7,1.3-3.9,1.2-6.3c-0.1-1.2-0.2-2.3-0.4-3.3C44.6,76.4,44.2,75.4,43.8,74.6
			"/>
		<path clip-path="url(#SVGID_4_)" fill="#231F20" d="M45.9,84.7c-0.8,3.2-2.3,5.7-4.3,7.7c-2,2-4.5,3.6-7.7,4.3
			c-1.7,0.4-3.6,0.5-5.5,0.3c-1.8-0.2-3.3-0.7-4.7-1.3c-2.7-1.2-5-3-6.6-5.4c-1.7-2.3-2.9-5.2-3.1-9v-1c0.1-1.2,0.2-2.4,0.5-3.5
			c0.8-3.1,2.3-5.5,4.3-7.5c2.6-2.6,6.1-4.5,11-4.7h1c3.8,0.2,6.6,1.4,9,3.1c2.3,1.7,4.2,3.9,5.4,6.7c0.6,1.4,1.1,3,1.3,4.8
			C46.4,81.2,46.3,83.1,45.9,84.7 M43.4,63.8H17.1c-2.5,0-4.8,0.5-7,1.5C4.2,68,0,73.9,0,80.9c0,7.5,4.9,13.9,11.6,16.2
			c1.7,0.6,3.6,1,5.5,1h26.2c9.5,0,17.1-7.7,17.1-17.2C60.5,71.5,52.8,63.8,43.4,63.8"/>
	</g>
	<polygon fill="#FFFFFF" points="151.5,71.9 143.8,71.9 143.8,68.8 162.4,68.8 162.4,71.9 154.8,71.9 154.8,96.1 151.5,96.1 	"/>
	<polygon fill="#FFFFFF" points="185.1,68.8 199.5,68.8 199.5,71.7 188.4,71.7 188.4,79.6 199.5,79.6 199.5,82.6 188.4,82.6 
		188.4,93.1 199.5,93.1 199.5,96.1 185.1,96.1 	"/>
	<g>
		<defs>
			<rect id="SVGID_5_" x="0" y="0" width="589.9" height="102.9"/>
		</defs>
		<clipPath id="SVGID_6_">
			<use xlink:href="#SVGID_5_"  overflow="visible"/>
		</clipPath>
		<path clip-path="url(#SVGID_6_)" fill="#FFFFFF" d="M237.2,71.1c-2.9,0-5.8,1.2-7.8,3.3c-2.1,2.2-3.1,4.9-3.1,8.1
			c0,2.5,0.6,4.7,1.9,6.5c2.2,3.1,5.5,4.9,9.2,4.9c3.4,0,6.5-1.4,8.9-4.3v4.3c-2.7,1.9-5.9,3-9.2,3c-2.9,0-5.7-0.9-8.1-2.5
			c-4-2.8-6.1-6.9-6.1-11.7c0-4.2,1.4-7.6,4.3-10.4c2.8-2.7,6.2-4,10.2-4c3.3,0,6.2,1,9,2.9v4.2C243.6,72.4,240.7,71.1,237.2,71.1"
			/>
	</g>
	<polygon fill="#FFFFFF" points="270.8,68.8 274.1,68.8 274.1,79.3 288.6,79.3 288.6,68.8 291.9,68.8 291.9,96.1 288.6,96.1 
		288.6,82.4 274.1,82.4 274.1,96.1 270.8,96.1 	"/>
	<polygon fill="#FFFFFF" points="317.5,67.7 337.5,89.5 337.5,68.8 340.6,68.8 340.6,97.1 320.6,75.6 320.6,96.1 317.5,96.1 	"/>
	<g>
		<defs>
			<rect id="SVGID_7_" x="0" y="0" width="589.9" height="102.9"/>
		</defs>
		<clipPath id="SVGID_8_">
			<use xlink:href="#SVGID_7_"  overflow="visible"/>
		</clipPath>
		<path clip-path="url(#SVGID_8_)" fill="#FFFFFF" d="M387.4,90.4c2.1-2.1,3.3-4.9,3.3-7.9c0-3.1-1.1-5.9-3.3-8
			c-2.1-2.1-4.9-3.3-7.9-3.3c-3,0-5.8,1.1-7.9,3.3c-2.1,2.2-3.3,5-3.3,8c0,3.1,1.1,5.8,3.3,7.9c2.2,2.2,4.9,3.3,7.9,3.3
			C382.5,93.7,385.2,92.6,387.4,90.4 M389.8,92.6c-2.8,2.7-6.5,4.2-10.4,4.2c-3.9,0-7.6-1.5-10.3-4.2c-2.8-2.7-4.3-6.2-4.3-10.1
			c0-3.9,1.5-7.5,4.3-10.2c2.8-2.7,6.5-4.2,10.3-4.2c3.9,0,7.6,1.5,10.4,4.2c2.8,2.7,4.2,6.3,4.2,10.2
			C394.1,86.4,392.6,89.9,389.8,92.6"/>
	</g>
	<polygon fill="#FFFFFF" points="418.5,68.8 421.7,68.8 421.7,93 432,93 432,96.1 418.5,96.1 	"/>
	<g>
		<defs>
			<rect id="SVGID_9_" x="0" y="0" width="589.9" height="102.9"/>
		</defs>
		<clipPath id="SVGID_10_">
			<use xlink:href="#SVGID_9_"  overflow="visible"/>
		</clipPath>
		<path clip-path="url(#SVGID_10_)" fill="#FFFFFF" d="M474.8,90.4c2.1-2.1,3.3-4.9,3.3-7.9c0-3.1-1.1-5.9-3.3-8
			c-2.1-2.1-4.9-3.3-7.9-3.3c-3,0-5.8,1.1-7.9,3.3c-2.1,2.2-3.3,5-3.3,8c0,3.1,1.1,5.8,3.3,7.9c2.2,2.2,4.9,3.3,7.9,3.3
			C469.8,93.7,472.6,92.6,474.8,90.4 M477.2,92.6c-2.8,2.7-6.5,4.2-10.4,4.2c-3.9,0-7.6-1.5-10.3-4.2c-2.8-2.7-4.3-6.2-4.3-10.1
			c0-3.9,1.5-7.5,4.3-10.2c2.8-2.7,6.5-4.2,10.3-4.2c3.9,0,7.6,1.5,10.4,4.2c2.8,2.7,4.2,6.3,4.2,10.2
			C481.4,86.4,480,89.9,477.2,92.6"/>
		<path clip-path="url(#SVGID_10_)" fill="#FFFFFF" d="M532.1,82v0.9c0,8.7-5.3,13.9-13.6,13.9c-2.7,0-5-0.6-6.9-1.6
			c-4.5-2.4-7-7-7-12.5c0-4.5,1.5-8.2,4.4-11c2.5-2.4,5.8-3.6,9.7-3.6c5.2,0,9.1,1.9,11.6,5.7l-2.7,2.2c-2-3.3-4.9-5-8.8-5
			c-6.3,0-10.7,4.7-10.7,11.6c0,6.5,4.5,11.2,10.7,11.2c5.4,0,9.5-3.6,9.9-9h-7.8V82H532.1z"/>
	</g>
	<polygon fill="#FFFFFF" points="561.3,83.6 552,68.8 555.8,68.8 562.9,80.6 570,68.8 573.8,68.8 564.5,83.6 564.5,96.1 561.3,96.1 
			"/>
</g>
</svg>
