<?xml version="1.0" encoding="utf-8"?>
<!-- Generator: Adobe Illustrator 18.1.1, SVG Export Plug-In . SVG Version: 6.00 Build 0)  -->
<svg version="1.1" id="Layer_1" xmlns="http://www.w3.org/2000/svg" xmlns:xlink="http://www.w3.org/1999/xlink" x="0px" y="0px"
	 viewBox="0 0 79.4 99.6" enable-background="new 0 0 79.4 99.6" xml:space="preserve">
<polygon fill="#FF6B00" points="65.9,63.5 72.1,63.2 72,62.4 65.1,62.6 57.6,55.5 69,55 69,54 56.6,54.6 40,38.7 50.1,38.5 
	60.4,49.5 62.3,47.6 53.7,38.4 66.9,38.1 64.2,41.6 66.3,43.2 71.5,36.7 66.1,30.2 64,31.9 66.9,35.5 54.1,35.7 61.9,27.1 
	59.9,25.3 50.4,35.8 40.2,36 59.7,15.8 72.3,16.2 72.3,15.3 60.6,14.9 67.9,7.3 74.9,7.6 74.9,6.7 68.8,6.4 74.3,0.7 73.7,0 
	68.1,5.7 67.9,0 66.9,0 67.2,6.7 60.1,14.1 59.5,3 58.6,3.1 59.2,15 39.4,35.5 39.2,27.5 50.2,17.4 48.4,15.4 39.2,24 38.9,8.6 
	42.4,11.4 44,9.3 37.2,4.2 30.9,9.6 32.6,11.6 36.2,8.6 36.5,23.9 27.8,16.1 26,18.1 36.6,27.6 36.7,35.6 16.4,16.1 16.8,3.6 
	15.9,3.6 15.5,15.3 7.9,8 8.2,1.1 7.3,1 7,7.2 1.2,1.6 0.6,2.3 6.3,7.8 0.5,8 0.6,9 7.3,8.7 14.7,15.8 3.6,16.4 3.6,17.3 15.6,16.7 
	35.9,36.1 25.6,36.3 15.5,25.7 13.6,27.6 22,36.4 8.6,36.7 11.5,32.9 9.4,31.3 4.2,38.1 9.6,44.4 11.7,42.6 8.9,39.4 22.2,39.1 
	14,48 16,49.8 25.9,39 36.2,38.8 20.3,55.3 7.9,54.9 7.9,55.9 19.4,56.2 12.2,63.7 4.7,63.9 4.8,64.7 11.3,64.6 2,74.2 2.7,74.9 
	12.1,65.1 12.4,71.2 13.3,71.1 12.9,64.3 20.2,56.7 20.7,68.1 21.7,68.1 21.1,55.8 36.8,39.5 37,47.5 26.2,57.7 28,59.6 37,51.2 
	37.4,67 33.6,64.2 32,66.3 38.8,71.4 45.1,66 43.4,64 40.1,66.9 39.7,51.2 48.6,59.2 50.4,57.2 39.7,47.5 39.5,39.5 56.1,55.4 
	55.8,67.7 56.7,67.7 57,56.3 64.4,63.3 64.7,70.9 65.6,70.8 65.3,64.1 75.2,73.6 75.8,72.9 "/>
<path fill="#FF6B00" d="M5,90.2c-2.4,0-4.1,1.9-4,4.5c0,2.4,1.8,4.1,4.2,4.1c2.2,0,3.7-1.5,3.6-3.5l-3.4,0.1l0-0.8l4.3-0.1
	c0,0,0,0.1,0,0.1c0.1,3-1.7,4.9-4.7,5c-3,0.1-5-2-5.1-5c-0.1-2.9,1.9-5.1,4.8-5.2c1.9,0,3.4,0.6,4.2,2L8.4,92
	C7.6,90.8,6.4,90.2,5,90.2"/>
<polygon fill="#FF6B00" points="18.3,89.4 18.5,99 22.7,99 22.7,98.1 19.4,98.2 19.2,89.3 "/>
<path fill="#FF6B00" d="M35.4,94.7l-1.7-4.2L32,94.7L35.4,94.7z M33.7,88.7l4.3,10l-1,0l-1.3-3.3l-4,0.1l-1.2,3.3l-0.9,0L33.7,88.7z
	"/>
<path fill="#FF6B00" d="M50.2,89.3c-2.5,0.1-4.2,1.9-4.2,4.4c0,2.6,1.9,4.2,4.2,4.2c1.1,0,2.2-0.4,3.1-1.2l0,1
	c-0.9,0.6-2.1,0.9-3.1,1c-2.9,0.1-5.2-1.9-5.2-5c-0.1-3,2.1-5.1,5-5.2c1.2,0,2.3,0.3,3.2,0.9l0,1C52.3,89.6,51.4,89.2,50.2,89.3"/>
<rect x="57.7" y="92.9" transform="matrix(-2.006281e-002 -0.9998 0.9998 -2.006281e-002 -29.4645 157.7426)" fill="#FF6B00" width="9.7" height="0.9"/>
<path fill="#FF6B00" d="M76.8,93.8l-1.7-4.2l-1.6,4.2L76.8,93.8z M75.1,87.8l4.3,10l-1,0l-1.3-3.3l-4,0.1L71.9,98L71,98L75.1,87.8z"
	/>
</svg>
