<?xml version="1.0" encoding="utf-8"?>
<!-- Generator: Adobe Illustrator 18.1.1, SVG Export Plug-In . SVG Version: 6.00 Build 0)  -->
<svg version="1.1" id="Layer_1" xmlns="http://www.w3.org/2000/svg" xmlns:xlink="http://www.w3.org/1999/xlink" x="0px" y="0px"
	 viewBox="0 0 127.7 98.4" enable-background="new 0 0 127.7 98.4" xml:space="preserve">
<polygon fill="#00ADD8" points="30.4,88 31.3,88 31.4,92.2 37.1,92.1 37,87.9 38,87.9 38.2,98.3 37.2,98.3 37.1,92.9 31.4,93 
	31.5,98.4 30.6,98.4 "/>
<polygon fill="#00ADD8" points="50.2,93.2 46.7,87.7 47.8,87.7 50.7,92.4 53.4,87.6 54.5,87.5 51.2,93.2 51.3,98 50.3,98 "/>
<path fill="#00ADD8" d="M65.2,96.9c0.2,0,0.4,0,0.6,0c1.3,0,2.3-0.1,3.1-0.7c1-0.7,1.5-2.1,1.5-3.8c0-1.4-0.4-2.6-1.1-3.3
	c-1-1-2.2-1.1-3.9-1c-0.1,0-0.2,0-0.3,0l-0.8,0l0.2,8.8L65.2,96.9z M63.2,87.4l1.6,0c1.8,0,3.2-0.1,4.3,0.6c1.4,0.8,2.2,2.4,2.2,4.5
	c0,1.9-0.6,3.4-1.7,4.3c-1.2,0.9-2.5,1-4.2,1c-0.1,0-0.3,0-0.4,0l-1.6,0L63.2,87.4z"/>
<path fill="#00ADD8" d="M81.8,91.7l1,0c1.6,0,2.4-0.4,2.3-1.9c0-1.5-0.8-2-2.4-1.9l-1,0L81.8,91.7z M86.1,97.3l-3.8-4.9l-0.6,0
	l0.1,5l-0.9,0L80.7,87l1.9,0c2.3,0,3.4,0.9,3.5,2.8c0,1.6-1,2.6-2.7,2.7l3.9,4.9L86.1,97.3z"/>
<path fill="#00ADD8" d="M100.8,92.7l-1.9-4.5l-1.8,4.6L100.8,92.7z M98.9,86.2l4.6,10.7l-1,0l-1.4-3.5l-4.3,0.1l-1.3,3.6l-1,0
	L98.9,86.2z"/>
<path fill="#00ADD8" d="M21.6,3.5c4.1,5.2,12.3,8.5,21.2,8.3c8.6-0.2,16.4-3.5,20.4-8.6v0c4.2,4.9,12.1,8,20.7,7.8
	c8.9-0.2,16.9-3.7,20.8-9.1c4.1,5.3,12.3,8.5,21.2,8.3c0.2,0,0.5,0,0.7,0l-0.1-1.1c-0.2,0-0.5,0-0.7,0C117,9.3,108.8,6,105.1,0.6
	L104.7,0l-0.4,0.7c-3.5,5.5-11.5,9.1-20.4,9.3c-8.9,0.2-17-3.1-20.7-8.4v0c-3.5,5.5-11.5,9.1-20.4,9.3c-8.9,0.2-17-3.1-20.8-8.4
	l-0.4-0.6l-0.4,0.7c-3.5,5.5-11.5,9.1-20.4,9.3c-0.2,0-0.5,0-0.7,0l0,1.1c0.2,0,0.5,0,0.7,0C9.6,12.5,17.7,8.9,21.6,3.5"/>
<path fill="#00ADD8" d="M21.9,21.3c4.5,4.9,12.5,7.9,21.2,7.7c8.4-0.2,16-3.3,20.4-8.1v0c4.6,4.7,12.3,7.5,20.7,7.3
	c8.6-0.2,16.5-3.5,20.8-8.6c4.5,4.9,12.5,7.9,21.2,7.8l0.8,0l-0.2-3.1l-0.7,0c-8.6,0.2-16.4-3-20-8.1l-1.3-1.8l-1.2,1.9
	c-3.3,5.2-11,8.7-19.6,8.8c-8.7,0.2-16.6-3.1-20.1-8.2l-0.7-1v0l-0.6,1c-3.3,5.3-11,8.9-19.7,9c-8.6,0.2-16.4-3-19.9-8L21.8,16
	l-1.2,1.9c-3.3,5.2-11,8.7-19.6,8.9l-0.7,0l0,3.1l0.8,0C9.7,29.7,17.7,26.4,21.9,21.3"/>
<path fill="#00ADD8" d="M84.6,45.1c8.9-0.2,16.9-3.7,20.8-9.1c4.1,5.3,12.3,8.5,21.2,8.3c0.2,0,0.5,0,0.7,0l0-1.1
	c-0.2,0-0.5,0-0.7,0c-8.9,0.2-17.1-3.1-20.8-8.5l-0.4-0.6l-0.4,0.6c-3.5,5.5-11.5,9.1-20.4,9.3c-8.9,0.2-17-3.1-20.7-8.4l0,0
	c-3.5,5.5-11.5,9.1-20.4,9.3c-8.9,0.2-17-3.1-20.7-8.4l-0.4-0.6l-0.4,0.7c-3.5,5.5-11.5,9.1-20.4,9.3c-0.2,0-0.5,0-0.7,0l0,1.1
	c0.2,0,0.5,0,0.7,0c8.9-0.2,17-3.8,20.8-9.2c4.1,5.2,12.3,8.5,21.2,8.3c8.6-0.2,16.4-3.5,20.4-8.6v0C68.1,42.2,75.9,45.2,84.6,45.1"
	/>
<path fill="#00ADD8" d="M126.9,60.7c-8.6,0.2-16.4-3-20-8.1l-1.3-1.8l-1.2,1.9c-3.3,5.2-11,8.7-19.6,8.8c-8.7,0.2-16.6-3.1-20.1-8.2
	l-0.7-1v0l-0.6,1c-3.3,5.3-11,8.9-19.7,9c-8.6,0.2-16.4-3-19.9-8l-1.3-1.8l-1.2,1.9c-3.3,5.2-11,8.7-19.6,8.9l-0.7,0l0,3.1l0.7,0
	c8.7-0.2,16.6-3.5,20.9-8.6c4.5,4.9,12.5,7.9,21.2,7.7c8.4-0.2,16-3.3,20.4-8.1v0c4.6,4.7,12.3,7.5,20.7,7.3
	c8.6-0.2,16.5-3.5,20.8-8.6c4.5,4.9,12.5,7.9,21.2,7.8l0.7,0l-0.1-3.1L126.9,60.7z"/>
</svg>
