<?xml version="1.0" encoding="utf-8"?>
<!-- Generator: Adobe Illustrator 18.1.1, SVG Export Plug-In . SVG Version: 6.00 Build 0)  -->
<svg version="1.1" id="Layer_1" xmlns="http://www.w3.org/2000/svg" xmlns:xlink="http://www.w3.org/1999/xlink" x="0px" y="0px"
	 viewBox="0 0 180 102.7" enable-background="new 0 0 180 102.7" xml:space="preserve">
<path fill="#CFDE00" d="M137.4,66.2l-26.2-39.9L129,13.6L142.4,27l7.7-4.3l26.5,43.5L137.4,66.2z M63.5,66.3l36.3-51.7l33.9,51.6
	L63.5,66.3z M45.5,66.3l-40.7,0l50.5-53.1l20.8,11.2L45.5,66.3z M150.7,21.6l-0.3-0.4l-7.9,4.4l-13.4-13.5l-18.6,13.3L93.9,0
	L76.8,23.4L55.1,11.8L0,69.6l47,0L93.7,5.4l4.2,6.3L57.4,69.5l76.5-0.1l5.7,0l40.5,0L150.7,21.6z"/>
<polygon fill="#CFDE00" points="51.8,92.3 48.7,92.3 48.7,91.4 56,91.4 56,92.3 52.8,92.3 52.9,102.7 51.8,102.7 "/>
<polygon fill="#CFDE00" points="65.7,91.4 71.3,91.4 71.3,92.3 66.7,92.3 66.7,95.9 71.3,95.9 71.3,96.8 66.7,96.8 66.7,101.7 
	71.3,101.7 71.3,102.7 65.7,102.7 "/>
<path fill="#CFDE00" d="M82.8,96.4l1,0c1.8,0,2.6-0.4,2.6-2c0-1.6-0.8-2.1-2.6-2.1h-1L82.8,96.4z M87.4,102.6l-4-5.4h-0.6l0,5.4h-1
	l0-11.3h2.1c2.5,0,3.7,1,3.7,3.1c0,1.8-1.1,2.8-3,2.8l4.1,5.4H87.4z"/>
<path fill="#CFDE00" d="M99.2,96.4h1c1.8,0,2.6-0.4,2.6-2c0-1.6-0.8-2.1-2.6-2.1h-1L99.2,96.4z M103.8,102.6l-4-5.4h-0.6l0,5.4h-1
	l0-11.3h2.1c2.5,0,3.7,1,3.7,3.1c0,1.8-1.1,2.8-3,2.8l4.1,5.4H103.8z"/>
<path fill="#CFDE00" d="M119.8,97.9l-1.9-4.9l-2,4.9L119.8,97.9z M117.9,90.9l4.8,11.7h-1.1l-1.4-3.8l-4.6,0l-1.5,3.8l-1.1,0
	L117.9,90.9z"/>
</svg>
